<svg xmlns="http://www.w3.org/2000/svg" viewBox="0 0 38.86 66.75" fill="none" stroke="#3ECDA0" stroke-width="1.2" stroke-linecap="round" stroke-linejoin="round"><g transform="translate(38.86,0) scale(-1,1)"><path d="M26.93,65.08a12.89,12.89,0,0,1-11.15,0A12.32,12.32,0,0,1,9.23,54.49c0-1.93.63-2.37.84-5.24a22.06,22.06,0,0,0-.84-7.72,33.63,33.63,0,0,0,9,5.76c3.57,1.54,6.94,3,10.33,1.76a8.31,8.31,0,0,0,2.75-1.72c.53-.5,1.86-1.91,2.81-6.46.55-2.62,1.09-6.89.23-7.15-.47-.14-1.23,1-3.93,3.34a2.59,2.59,0,0,1-1.55.72c-.57,0-.73-.36-1.34-.41a2.92,2.92,0,0,0-1.65.58c-1.74.92-2.62,1-2.59,1.18.1.51,8.62-1.19,8.84-.37.09.36-1.39,1.22-2.91,1.42-1.88.26-4.42-.39-5.21-2.1-.4-.87,0-2.2.83-4.84a17.89,17.89,0,0,1,1.45-3.72c.06,0-.21.72-.31,1.86s0,2.38.26,2.42.51-1.68,1.38-1.82a.66.66,0,0,1,.69.25c.23.43-.64,1-.47,1.42s1.73.62,2.54-.11C31,33,31,32,31.27,32s.54,1.24.73,1.21.39-1.42-.08-2.84a9.09,9.09,0,0,0-1.41-2.29,27.29,27.29,0,0,1-2.22-4.14c-.84-1.88-.89-2.59-1.17-2.58-.91,0,0,7.19-3.21,8.88-1.75.94-4.58.1-6-1.53-2.11-2.43-.57-5.85-2-6.49s-4,1.23-5.75,3.47C6.09,31,8,37.66,6.63,37.91s-4-5.41-3-6.31c.63-.53,2.65.56,3.79,2,2.05,2.52,1.81,6.74.47,7.32-1.8.78-5.4-5-5.72-5.47-1.46-2.36-1.36-3.4-1.1-4a3.23,3.23,0,0,1,1.69-1.62c-3.82-8.21-3-17.3,2-22.82a18.12,18.12,0,0,1,12.29-6,16.23,16.23,0,0,1,4.9.59c-8.4,6.34-17.5,13.41-17,14.06.31.45,5.17-2.39,5.68-2.69C22.15,6.09,23.84.3,29.08.38c4.6.07,9.59,4.63,9.4,8.78-.16,3.57-4.14,7-6.09,6.3-1.67-.54-.81-3.66-3.45-6-2-1.78-4.84-1.54-6.27-1.45-8,.55-16.41,8.53-15.36,14.86a7.13,7.13,0,0,0,1,2.65c5.72-3.51,10.66-5,12.87-4.86,1.55.08,2.76.15,3.8,1a6.65,6.65,0,0,0,1.39.92c.55.26,1.43.68,2.06.35s.36-.94.8-1.52A5.15,5.15,0,0,1,38,23.63a5.13,5.13,0,0,1-1.06,3.64,7.28,7.28,0,0,1-3,2.59"/></g></svg>
